<?xml version="1.0" encoding="UTF-8"?>
<svg xmlns="http://www.w3.org/2000/svg" xmlns:xlink="http://www.w3.org/1999/xlink" width="16pt" height="16pt" viewBox="0 0 16 16" version="1.1">
<g id="surface18988841">
<path style=" stroke:none;fill-rule:nonzero;fill:rgb(60%,60%,60%);fill-opacity:1;" d="M 8 0.640625 C 3.9375 0.640625 0.640625 3.9375 0.640625 8 C 0.640625 12.0625 3.9375 15.359375 8 15.359375 C 12.0625 15.359375 15.359375 12.0625 15.359375 8 C 15.359375 3.9375 12.0625 0.640625 8 0.640625 Z M 8 1.28125 C 11.714844 1.28125 14.71875 4.285156 14.71875 8 C 14.71875 11.714844 11.714844 14.71875 8 14.71875 C 4.285156 14.71875 1.28125 11.714844 1.28125 8 C 1.28125 4.285156 4.285156 1.28125 8 1.28125 Z M 8 3.519531 C 7.46875 3.519531 7.039062 3.949219 7.039062 4.480469 C 7.039062 5.011719 7.46875 5.441406 8 5.441406 C 8.53125 5.441406 8.960938 5.011719 8.960938 4.480469 C 8.960938 3.949219 8.53125 3.519531 8 3.519531 Z M 6.71875 6.71875 L 6.71875 7.359375 L 7.359375 7.359375 L 7.359375 11.519531 L 6.71875 11.519531 L 6.71875 12.160156 L 9.28125 12.160156 L 9.28125 11.519531 L 8.640625 11.519531 L 8.640625 6.71875 Z M 6.71875 6.71875 "/>
</g>
</svg>
